<?xml version="1.0" encoding="UTF-8"?>
<svg version="1.1" xmlns="http://www.w3.org/2000/svg" width="512" height="512">
<path d="M0 0 C7.39582168 6.00406491 14.05859273 12.91889588 20.77392578 19.66040039 C21.8096552 20.6964127 22.84560649 21.73220324 23.88175964 22.76779175 C26.66224663 25.54799476 29.43966484 28.33124446 32.21649408 31.11510015 C35.13078711 34.03569385 38.04795983 36.9534085 40.96481323 39.8714447 C46.47367694 45.38340209 51.97998913 50.89790092 57.48536289 56.41334385 C63.75917466 62.69837809 70.03586568 68.98053361 76.31278634 75.26246274 C89.21170439 88.17180067 102.10704722 101.08470449 115 114 C118.58662132 112.47990507 120.86155173 110.37394199 123.5897522 107.61711121 C124.5063562 106.69603073 125.42296021 105.77495026 126.36734009 104.82595825 C127.37598886 103.8022573 128.38456175 102.77848159 129.39306641 101.75463867 C130.46069244 100.67826095 131.52879958 99.60236024 132.59735107 98.52690125 C134.89722178 96.21054453 137.1940921 93.89126699 139.48881912 91.56981468 C143.12284256 87.89438791 146.76612474 84.22823502 150.41122437 80.563797 C160.77524757 70.14223262 171.12932095 59.71085446 181.46826172 49.2644043 C187.17890609 43.49453823 192.89858301 37.73378317 198.62817132 31.98272687 C202.24841447 28.34789996 205.85733073 24.70230921 209.45814061 21.0482353 C211.71002434 18.76845505 213.97247043 16.49938507 216.23793793 14.23311043 C217.27989589 13.186614 218.3176026 12.13586314 219.35048294 11.08040619 C226.01505101 4.27622678 232.52226955 -1.68650554 242.1015625 -3.62890625 C249.18248137 -3.44256628 254.49190023 -2.297145 259.75390625 2.6484375 C264.01506534 7.35111428 266.2755069 11.73636293 266.4375 18.1875 C266.47746094 19.04730469 266.51742188 19.90710938 266.55859375 20.79296875 C264.73044666 31.28883421 257.44687772 38.25132779 250.15112305 45.41650391 C249.04587619 46.52033773 247.94173443 47.625279 246.83860779 48.73123169 C243.86248211 51.70878296 240.87127385 54.67074067 237.87697196 57.62999773 C234.7422971 60.7332655 231.62191973 63.85084444 228.49995422 66.96688843 C222.5956412 72.85570507 216.6787075 78.73166732 210.75705415 84.60304105 C204.01196269 91.29210792 197.28118357 97.99549872 190.55152833 104.70008969 C176.71680772 118.48264744 162.86434697 132.24724799 149 146 C150.5177889 149.57301693 152.61053596 151.85286593 155.35165405 154.57870483 C156.26576553 155.49267532 157.17987701 156.40664581 158.12168884 157.34831238 C159.13751947 158.35387544 160.15343733 159.35935039 161.16943359 160.36474609 C162.23756035 161.42903369 163.30523205 162.49377816 164.3724823 163.5589447 C166.67066139 165.85080356 168.97191095 168.13951831 171.27555466 170.42588425 C174.92002598 174.04330154 178.55684881 177.66834285 182.1925354 181.29458618 C190.57016053 189.64812165 198.9577439 197.99163519 207.34545135 206.33504486 C215.02788124 213.97709372 222.70818064 221.62125139 230.38039458 229.27355826 C233.99259399 232.87580784 237.60961112 236.47312681 241.23041892 240.06672263 C243.48556577 242.30691614 245.73653032 244.55127657 247.9863987 246.7967701 C249.02788474 247.8345222 250.07109327 248.87054902 251.1161747 249.90468025 C252.54689214 251.32088106 253.97079193 252.74395937 255.39437866 254.16732788 C256.19189734 254.96040533 256.98941601 255.75348278 257.81110191 256.57059288 C263.25219927 262.6095404 265.45187002 267.97217967 266 276 C265.45137271 282.66353565 262.41920542 287.82271512 257.5 292.25 C251.56005814 296.4079593 245.74709173 297.65556371 238.5625 296.5 C228.5747065 293.77904467 221.11462393 284.39484389 214.06420898 277.29125977 C212.99928581 276.22577121 211.9339196 275.16072531 210.8681488 274.09608459 C208.00064318 271.22914851 205.13930945 268.35612566 202.27911258 265.48190045 C199.27986375 262.47007716 196.27488085 259.4639856 193.27052307 256.45726013 C187.59315659 250.77369851 181.92090398 245.08506189 176.25050837 239.39454645 C169.79007488 232.91169251 163.3239039 226.43457414 156.8572644 219.95791161 C143.56515279 206.64494258 130.28019924 193.32485158 117 180 C113.42698307 181.5177889 111.14713407 183.61053596 108.42129517 186.35165405 C107.50732468 187.26576553 106.59335419 188.17987701 105.65168762 189.12168884 C104.64612456 190.13751947 103.64064961 191.15343733 102.63525391 192.16943359 C101.57096631 193.23756035 100.50622184 194.30523205 99.4410553 195.3724823 C97.14919644 197.67066139 94.86048169 199.97191095 92.57411575 202.27555466 C88.95669846 205.92002598 85.33165715 209.55684881 81.70541382 213.1925354 C73.35187835 221.57016053 65.00836481 229.9577439 56.66495514 238.34545135 C49.02290628 246.02788124 41.37874861 253.70818064 33.72644174 261.38039458 C30.12419216 264.99259399 26.52687319 268.60961112 22.93327737 272.23041892 C20.69308386 274.48556577 18.44872343 276.73653032 16.2032299 278.9863987 C15.1654778 280.02788474 14.12945098 281.07109327 13.09531975 282.1161747 C11.67911894 283.54689214 10.25604063 284.97079193 8.83267212 286.39437866 C8.03959467 287.19189734 7.24651722 287.98941601 6.42940712 288.81110191 C0.3904596 294.25219927 -4.97217967 296.45187002 -13 297 C-19.66353565 296.45137271 -24.82271512 293.41920542 -29.25 288.5 C-33.25361712 282.78054696 -34.42624917 277.56909198 -33.77734375 270.61328125 C-32.55282302 264.98048588 -29.94550394 261.52066446 -26.02836609 257.35186768 C-25.54008605 256.83017478 -25.05180601 256.30848189 -24.5487296 255.77098012 C-19.56570945 250.47528358 -14.44759142 245.31401263 -9.29614258 240.18261719 C-8.27953932 239.16629708 -7.26315834 238.14975459 -6.24697876 237.13301086 C-3.52887504 234.41462418 -0.80773399 231.69929759 1.91402984 228.98457623 C4.77322755 226.13169667 7.62952944 223.27592057 10.48616028 220.42047119 C15.87763432 215.03208581 21.27164867 209.64625107 26.66661674 204.26136422 C32.81627862 198.12294074 38.96304783 191.98162405 45.1095947 185.84008169 C57.73654967 173.22353518 70.36707108 160.61056467 83 148 C81.48350436 144.43033754 79.39592301 142.15582354 76.65507507 139.43475342 C75.74240875 138.52367325 74.82974243 137.61259308 73.88941956 136.67390442 C72.8751718 135.67151914 71.860841 134.66921788 70.84643555 133.66699219 C69.77992414 132.60595751 68.71387517 131.54445784 67.64825439 130.48252869 C65.35329378 128.19727675 63.05531255 125.91512148 60.7550106 123.63524628 C57.11403752 120.02611414 53.48125849 116.40880993 49.84980774 112.7901001 C40.82600055 103.80036804 31.79298542 94.81990331 22.75500488 85.84442139 C15.73556216 78.87349869 8.71937299 71.89937728 1.71369392 64.91461873 C-1.89135632 61.32105729 -5.50322539 57.73454092 -9.12044299 54.15322924 C-11.37618798 51.916761 -13.62557489 49.67397986 -15.87329102 47.42944527 C-16.91186412 46.39487035 -17.9530035 45.3628638 -18.99696922 44.3337307 C-33.53359081 29.9961379 -33.53359081 29.9961379 -34.25 19.25 C-34.15084549 12.59425365 -31.71844869 6.71844869 -27 2 C-18.67291433 -3.75891906 -9.06118768 -5.24840719 0 0 Z " fill="#000000" transform="translate(140,109)"/>
</svg>
